<svg width="11" height="18" viewBox="0 0 11 18" fill="none" xmlns="http://www.w3.org/2000/svg">
<path d="M8.82812 0.296875C9.08854 0.0989583 9.35938 0.0260417 9.64062 0.078125C9.92188 0.119792 10.151 0.229167 10.3281 0.40625C10.5052 0.59375 10.6042 0.817708 10.625 1.07812C10.6562 1.32812 10.5417 1.55208 10.2812 1.75C8.86458 2.85417 7.50521 4 6.20312 5.1875C4.90104 6.375 3.63542 7.63021 2.40625 8.95312C3.40625 10.026 4.41667 11.0677 5.4375 12.0781C6.46875 13.0885 7.47396 14.1354 8.45312 15.2188C8.67188 15.4688 8.76042 15.7292 8.71875 16C8.67708 16.2708 8.56771 16.4948 8.39062 16.6719C8.21354 16.8594 7.98958 16.9688 7.71875 17C7.45833 17.0312 7.21875 16.9219 7 16.6719C5.91667 15.4635 4.79688 14.2969 3.64062 13.1719C2.49479 12.0469 1.38021 10.8802 0.296875 9.67188C0.109375 9.45312 0.0104167 9.21354 0 8.95312C0 8.68229 0.0989583 8.4375 0.296875 8.21875C1.61979 6.75 2.98438 5.36979 4.39062 4.07812C5.80729 2.77604 7.28646 1.51562 8.82812 0.296875Z" fill="#DD9CA7"/>
</svg>
