<svg width="76" height="76" viewBox="0 0 76 76" fill="none" xmlns="http://www.w3.org/2000/svg">
<g filter="url(#filter0_g_207_2173)">
<circle cx="38" cy="38" r="36" fill="#D5A98E"/>
</g>
<g filter="url(#filter1_g_207_2173)">
<circle cx="38" cy="38" r="29.52" fill="white"/>
</g>
<circle cx="38" cy="38" r="2" fill="#534640"/>
<path d="M34.2437 24.5636C34.0026 24.429 33.698 24.5153 33.5634 24.7564L31.3699 28.6856C31.2353 28.9267 31.3217 29.2313 31.5628 29.3659C31.8039 29.5005 32.1085 29.4142 32.2431 29.1731L34.1929 25.6805L37.6855 27.6303C37.9266 27.7649 38.2312 27.6785 38.3658 27.4374C38.5004 27.1963 38.414 26.8917 38.1729 26.7571L34.2437 24.5636ZM37.5455 37.5073L38.0266 37.371L34.4811 24.8638L34 25.0002L33.519 25.1365L37.0645 37.6437L37.5455 37.5073Z" fill="#534640"/>
<line x1="38.1044" y1="38.4037" x2="55.0015" y2="25.8959" stroke="#534640" stroke-linecap="round"/>
<defs>
<filter id="filter0_g_207_2173" x="0" y="0" width="76" height="76" filterUnits="userSpaceOnUse" color-interpolation-filters="sRGB">
<feFlood flood-opacity="0" result="BackgroundImageFix"/>
<feBlend mode="normal" in="SourceGraphic" in2="BackgroundImageFix" result="shape"/>
<feTurbulence type="fractalNoise" baseFrequency="0.5 0.5" numOctaves="3" seed="7650" />
<feDisplacementMap in="shape" scale="4" xChannelSelector="R" yChannelSelector="G" result="displacedImage" width="100%" height="100%" />
<feMerge result="effect1_texture_207_2173">
<feMergeNode in="displacedImage"/>
</feMerge>
</filter>
<filter id="filter1_g_207_2173" x="6.47998" y="6.47998" width="63.04" height="63.04" filterUnits="userSpaceOnUse" color-interpolation-filters="sRGB">
<feFlood flood-opacity="0" result="BackgroundImageFix"/>
<feBlend mode="normal" in="SourceGraphic" in2="BackgroundImageFix" result="shape"/>
<feTurbulence type="fractalNoise" baseFrequency="0.5 0.5" numOctaves="3" seed="7650" />
<feDisplacementMap in="shape" scale="4" xChannelSelector="R" yChannelSelector="G" result="displacedImage" width="100%" height="100%" />
<feMerge result="effect1_texture_207_2173">
<feMergeNode in="displacedImage"/>
</feMerge>
</filter>
</defs>
</svg>
