<svg width="76" height="91" viewBox="0 0 76 91" fill="none" xmlns="http://www.w3.org/2000/svg">
<g filter="url(#filter0_g_207_2348)">
<path d="M74 2H2V74.6575L15.351 87.8462H74V2Z" fill="white"/>
</g>
<g filter="url(#filter1_g_207_2348)">
<rect x="2" y="2" width="72" height="14.7692" fill="#FFAEAE"/>
</g>
<g filter="url(#filter2_g_207_2348)">
<path d="M15.8463 74.9229V88.769L2.00016 74.9229H15.8463Z" fill="#D9D9D9"/>
</g>
<g filter="url(#filter3_g_207_2348)">
<path d="M26.032 62V59.76H30.036V45.62L26.284 48.448L24.912 46.572L30.708 42.4H32.556V59.76H35.888V62H26.032ZM47.8331 62V57.828H39.4611V55.812L45.3131 42.204L47.4971 43.128L42.2051 55.532H47.8331V49.96H50.3531V55.532H52.6771V57.828H50.3531V62H47.8331Z" fill="#636261"/>
</g>
<g filter="url(#filter4_g_207_2348)">
<path d="M24.112 34.096C23.7227 34.096 23.368 34.0453 23.048 33.944C22.728 33.8373 22.4587 33.6987 22.24 33.528L22.624 32.888C22.816 33.048 23.032 33.1787 23.272 33.28C23.512 33.3813 23.792 33.432 24.112 33.432C24.496 33.432 24.8 33.352 25.024 33.192C25.248 33.032 25.36 32.816 25.36 32.544C25.36 32.3893 25.328 32.2533 25.264 32.136C25.2 32.0133 25.0747 31.896 24.888 31.784C24.7067 31.6667 24.4373 31.5413 24.08 31.408C23.696 31.2587 23.3893 31.1093 23.16 30.96C22.9307 30.8053 22.7653 30.632 22.664 30.44C22.568 30.2427 22.52 30.0107 22.52 29.744C22.52 29.4773 22.592 29.2373 22.736 29.024C22.8853 28.8053 23.1013 28.632 23.384 28.504C23.672 28.3707 24.0187 28.304 24.424 28.304C24.7547 28.304 25.0507 28.3387 25.312 28.408C25.5787 28.472 25.8373 28.5653 26.088 28.688L25.808 29.336C25.6267 29.2293 25.4133 29.1413 25.168 29.072C24.928 28.9973 24.6747 28.96 24.408 28.96C24.056 28.96 23.7787 29.0293 23.576 29.168C23.3733 29.3067 23.272 29.4853 23.272 29.704C23.272 29.8427 23.3013 29.9653 23.36 30.072C23.4187 30.1787 23.5333 30.2827 23.704 30.384C23.88 30.4853 24.1413 30.6 24.488 30.728C24.904 30.8827 25.232 31.0453 25.472 31.216C25.7173 31.3867 25.8907 31.5733 25.992 31.776C26.0933 31.9733 26.144 32.2 26.144 32.456C26.144 32.8027 26.056 33.0987 25.88 33.344C25.7093 33.5893 25.4693 33.776 25.16 33.904C24.856 34.032 24.5067 34.096 24.112 34.096ZM26.9469 34V28.4H30.3069V29.056H27.7069V30.76H29.9469V31.4H27.7069V33.344H30.3069V34H26.9469ZM31.0644 34V28.416C31.283 28.3893 31.523 28.3707 31.7844 28.36C32.051 28.344 32.3257 28.336 32.6084 28.336C33.0724 28.336 33.467 28.4107 33.7924 28.56C34.1177 28.704 34.3657 28.904 34.5364 29.16C34.707 29.416 34.7924 29.7093 34.7924 30.04C34.7924 30.44 34.6937 30.7787 34.4964 31.056C34.299 31.3333 34.0244 31.5467 33.6724 31.696C33.3204 31.84 32.9124 31.912 32.4484 31.912C32.2244 31.912 32.0164 31.904 31.8244 31.888V34H31.0644ZM32.5444 31.28C33.019 31.28 33.387 31.1733 33.6484 30.96C33.9097 30.7467 34.0404 30.4613 34.0404 30.104C34.0404 29.7573 33.915 29.4827 33.6644 29.28C33.4137 29.0773 33.0564 28.976 32.5924 28.976C32.4484 28.976 32.3124 28.9787 32.1844 28.984C32.0564 28.9893 31.9364 28.9973 31.8244 29.008V31.24C31.9097 31.2507 32.0137 31.2613 32.1364 31.272C32.259 31.2773 32.395 31.28 32.5444 31.28ZM36.4728 34V29.072H34.7528V28.4H38.9528V29.072H37.2328V34H36.4728ZM39.4322 34V28.4H42.7922V29.056H40.1922V30.76H42.4322V31.4H40.1922V33.344H42.7922V34H39.4322ZM43.5497 34V28.4H44.6137L46.1657 31.944L47.6937 28.4H48.7817V34H48.0217V29.368L46.5257 32.736H45.7737L44.2697 29.368V34H43.5497ZM51.5176 34.064C51.1922 34.064 50.8829 34.056 50.5896 34.04C50.3016 34.024 50.0722 34.0053 49.9016 33.984V28.416C50.0882 28.3947 50.3202 28.376 50.5976 28.36C50.8749 28.344 51.1922 28.336 51.5496 28.336C52.2322 28.336 52.7576 28.4667 53.1256 28.728C53.4936 28.984 53.6776 29.3333 53.6776 29.776C53.6776 30.0693 53.5976 30.32 53.4376 30.528C53.2829 30.7307 53.0562 30.8987 52.7576 31.032C53.1202 31.16 53.3949 31.3387 53.5816 31.568C53.7682 31.792 53.8616 32.0693 53.8616 32.4C53.8616 32.9067 53.6616 33.312 53.2616 33.616C52.8616 33.9147 52.2802 34.064 51.5176 34.064ZM50.6616 30.816H51.5416C51.9629 30.816 52.2962 30.728 52.5416 30.552C52.7922 30.376 52.9176 30.1493 52.9176 29.872C52.9176 29.5733 52.7949 29.3467 52.5496 29.192C52.3042 29.032 51.9682 28.952 51.5416 28.952C51.3656 28.952 51.2056 28.9573 51.0616 28.968C50.9176 28.9733 50.7842 28.9813 50.6616 28.992V30.816ZM51.5736 33.432C52.0482 33.432 52.4189 33.3467 52.6856 33.176C52.9522 33.0053 53.0856 32.7573 53.0856 32.432C53.0856 32.112 52.9549 31.8613 52.6936 31.68C52.4322 31.4987 52.0589 31.408 51.5736 31.408H50.6616V33.384C50.9442 33.416 51.2482 33.432 51.5736 33.432ZM54.6206 34V28.4H57.9806V29.056H55.3806V30.76H57.6206V31.4H55.3806V33.344H57.9806V34H54.6206ZM62.0021 34.096L61.3061 32.576C61.1301 32.1973 60.9088 31.928 60.6421 31.768C60.3755 31.608 60.0341 31.528 59.6181 31.528H59.4981V34H58.7381V28.416C59.0208 28.3893 59.2901 28.3707 59.5461 28.36C59.8075 28.344 60.0848 28.336 60.3781 28.336C61.0608 28.336 61.5728 28.4747 61.9141 28.752C62.2608 29.0293 62.4341 29.3867 62.4341 29.824C62.4341 30.2133 62.3168 30.528 62.0821 30.768C61.8528 31.0027 61.5195 31.1787 61.0821 31.296C61.2261 31.36 61.3541 31.4373 61.4661 31.528C61.5781 31.6133 61.6848 31.7307 61.7861 31.88C61.8928 32.024 61.9995 32.2133 62.1061 32.448L62.7141 33.76L62.0021 34.096ZM59.4981 30.888H60.3781C60.7621 30.888 61.0741 30.8027 61.3141 30.632C61.5541 30.4613 61.6741 30.216 61.6741 29.896C61.6741 29.6293 61.5621 29.4107 61.3381 29.24C61.1141 29.064 60.7941 28.976 60.3781 28.976C60.1968 28.976 60.0341 28.9787 59.8901 28.984C59.7461 28.9893 59.6155 28.9973 59.4981 29.008V30.888Z" fill="#636261"/>
</g>
<defs>
<filter id="filter0_g_207_2348" x="0" y="0" width="76" height="89.8462" filterUnits="userSpaceOnUse" color-interpolation-filters="sRGB">
<feFlood flood-opacity="0" result="BackgroundImageFix"/>
<feBlend mode="normal" in="SourceGraphic" in2="BackgroundImageFix" result="shape"/>
<feTurbulence type="fractalNoise" baseFrequency="0.5 0.5" numOctaves="3" seed="5187" />
<feDisplacementMap in="shape" scale="4" xChannelSelector="R" yChannelSelector="G" result="displacedImage" width="100%" height="100%" />
<feMerge result="effect1_texture_207_2348">
<feMergeNode in="displacedImage"/>
</feMerge>
</filter>
<filter id="filter1_g_207_2348" x="0" y="0" width="76" height="18.769" filterUnits="userSpaceOnUse" color-interpolation-filters="sRGB">
<feFlood flood-opacity="0" result="BackgroundImageFix"/>
<feBlend mode="normal" in="SourceGraphic" in2="BackgroundImageFix" result="shape"/>
<feTurbulence type="fractalNoise" baseFrequency="0.5 0.5" numOctaves="3" seed="3464" />
<feDisplacementMap in="shape" scale="4" xChannelSelector="R" yChannelSelector="G" result="displacedImage" width="100%" height="100%" />
<feMerge result="effect1_texture_207_2348">
<feMergeNode in="displacedImage"/>
</feMerge>
</filter>
<filter id="filter2_g_207_2348" x="0.00012207" y="72.9229" width="17.8462" height="17.8462" filterUnits="userSpaceOnUse" color-interpolation-filters="sRGB">
<feFlood flood-opacity="0" result="BackgroundImageFix"/>
<feBlend mode="normal" in="SourceGraphic" in2="BackgroundImageFix" result="shape"/>
<feTurbulence type="fractalNoise" baseFrequency="0.5 0.5" numOctaves="3" seed="3464" />
<feDisplacementMap in="shape" scale="4" xChannelSelector="R" yChannelSelector="G" result="displacedImage" width="100%" height="100%" />
<feMerge result="effect1_texture_207_2348">
<feMergeNode in="displacedImage"/>
</feMerge>
</filter>
<filter id="filter3_g_207_2348" x="24.112" y="41.4041" width="29.365" height="21.3959" filterUnits="userSpaceOnUse" color-interpolation-filters="sRGB">
<feFlood flood-opacity="0" result="BackgroundImageFix"/>
<feBlend mode="normal" in="SourceGraphic" in2="BackgroundImageFix" result="shape"/>
<feTurbulence type="fractalNoise" baseFrequency="0.99900001287460327 0.99900001287460327" numOctaves="3" seed="9274" />
<feDisplacementMap in="shape" scale="1.6000000238418579" xChannelSelector="R" yChannelSelector="G" result="displacedImage" width="100%" height="100%" />
<feMerge result="effect1_texture_207_2348">
<feMergeNode in="displacedImage"/>
</feMerge>
</filter>
<filter id="filter4_g_207_2348" x="21.44" y="27.5042" width="42.0741" height="7.39199" filterUnits="userSpaceOnUse" color-interpolation-filters="sRGB">
<feFlood flood-opacity="0" result="BackgroundImageFix"/>
<feBlend mode="normal" in="SourceGraphic" in2="BackgroundImageFix" result="shape"/>
<feTurbulence type="fractalNoise" baseFrequency="0.99900001287460327 0.99900001287460327" numOctaves="3" seed="9274" />
<feDisplacementMap in="shape" scale="1.6000000238418579" xChannelSelector="R" yChannelSelector="G" result="displacedImage" width="100%" height="100%" />
<feMerge result="effect1_texture_207_2348">
<feMergeNode in="displacedImage"/>
</feMerge>
</filter>
</defs>
</svg>
