<svg width="40" height="40" viewBox="0 0 40 40" fill="none" xmlns="http://www.w3.org/2000/svg">
  <path d="M29.9998 8.3335V13.3335H24.9998V8.3335H14.9998V13.3335H9.99984V8.3335H6.6665V33.3335H33.3332V8.3335H29.9998ZM11.6665 31.6668H8.33317V28.3335H11.6665V31.6668ZM11.6665 26.6668H8.33317V23.3335H11.6665V26.6668ZM11.6665 21.6668H8.33317V18.3335H11.6665V21.6668ZM16.6665 31.6668H13.3332V28.3335H16.6665V31.6668ZM16.6665 26.6668H13.3332V23.3335H16.6665V26.6668ZM16.6665 21.6668H13.3332V18.3335H16.6665V21.6668ZM21.6665 31.6668H18.3332V28.3335H21.6665V31.6668ZM21.6665 26.6668H18.3332V23.3335H21.6665V26.6668ZM21.6665 21.6668H18.3332V18.3335H21.6665V21.6668ZM26.6665 31.6668H23.3332V28.3335H26.6665V31.6668ZM26.6665 26.6668H23.3332V23.3335H26.6665V26.6668ZM26.6665 21.6668H23.3332V18.3335H26.6665V21.6668ZM31.6665 31.6668H28.3332V28.3335H31.6665V31.6668ZM31.6665 26.6668H28.3332V23.3335H31.6665V26.6668ZM31.6665 21.6668H28.3332V18.3335H31.6665V21.6668Z" fill="currentColor"/>
  <path d="M11.6665 6.6665H13.3332V11.6665H11.6665V6.6665Z" fill="currentColor"/>
  <path d="M26.6665 6.6665H28.3332V11.6665H26.6665V6.6665Z" fill="currentColor"/>
</svg>
