<svg width="35" height="35" viewBox="0 0 35 35" fill="none" xmlns="http://www.w3.org/2000/svg">
  <path d="M17.8611 5.8335C8.55691 5.8335 4.57566 16.596 6.17982 20.3002C7.37566 23.0564 10.0007 20.4168 11.0507 21.7585C13.7923 25.346 7.97357 27.3147 11.1819 28.5835C14.959 30.1293 29.1632 29.1668 29.1632 16.1439C29.1632 12.221 27.209 5.8335 17.8611 5.8335ZM12.3486 18.9585C11.16 18.9337 10.2048 17.9639 10.2048 16.771C10.2048 15.5635 11.1848 14.5835 12.3923 14.5835C13.5998 14.5835 14.5798 15.562 14.5798 16.771C14.5798 17.9785 13.5998 18.9585 12.3923 18.9585C12.3763 18.9585 12.3617 18.9585 12.3457 18.9585H12.3486ZM14.5798 10.9377C14.5798 9.73016 15.5598 8.75016 16.7673 8.75016C17.9748 8.75016 18.9548 9.73016 18.9548 10.9377C18.9548 12.1452 17.9748 13.1252 16.7673 13.1252C16.7513 13.1252 16.7367 13.1252 16.7207 13.1252C15.5336 13.1004 14.5798 12.1306 14.5798 10.9377ZM18.1819 26.2502C16.9934 26.2254 16.0382 25.2556 16.0382 24.0627C16.0382 22.8552 17.0182 21.8752 18.2257 21.8752C19.4332 21.8752 20.4132 22.8537 20.4132 24.0627C20.4132 25.2702 19.4332 26.2502 18.2257 26.2502C18.2096 26.2502 18.195 26.2502 18.179 26.2502H18.1819ZM24.0152 21.8752C22.8267 21.8504 21.8715 20.8806 21.8715 19.6877C21.8715 18.4802 22.8515 17.5002 24.059 17.5002C25.2665 17.5002 26.2465 18.4787 26.2465 19.6877C26.2465 20.8952 25.2665 21.8752 24.059 21.8752C24.0429 21.8752 24.0284 21.8752 24.0123 21.8752H24.0152ZM24.0152 14.5835C22.8267 14.5587 21.8715 13.5889 21.8715 12.396C21.8715 11.1885 22.8515 10.2085 24.059 10.2085C25.2665 10.2085 26.2465 11.187 26.2465 12.396C26.2465 13.6035 25.2665 14.5835 24.059 14.5835C24.0429 14.5835 24.0284 14.5835 24.0123 14.5835H24.0152Z" fill="currentColor"/>
</svg>
